<?xml version="1.0" encoding="UTF-8"?>
<!DOCTYPE svg PUBLIC "-//W3C//DTD SVG 1.1//EN" "http://www.w3.org/Graphics/SVG/1.1/DTD/svg11.dtd">
<svg xmlns="http://www.w3.org/2000/svg" version="1.1" width="1754px" height="1240px" style="shape-rendering:geometricPrecision; text-rendering:geometricPrecision; image-rendering:optimizeQuality; fill-rule:evenodd; clip-rule:evenodd" xmlns:xlink="http://www.w3.org/1999/xlink">
<g><path style="opacity:0.985" fill="#bbada7" d="M 1233.5,291.5 C 1222.8,295.683 1212.47,300.683 1202.5,306.5C 1199.86,307.82 1197.19,309.153 1194.5,310.5C 1198.08,294.42 1193.75,280.92 1181.5,270C 1172.86,264.821 1163.86,264.154 1154.5,268C 1132.71,276.729 1126.21,291.896 1135,313.5C 1141.02,323.691 1149.85,329.691 1161.5,331.5C 1162.26,332.268 1163.26,332.768 1164.5,333C 1154.18,340.983 1145.68,350.483 1139,361.5C 1123.94,418.781 1132.94,471.781 1166,520.5C 1171.99,528.325 1178.49,535.658 1185.5,542.5C 1182.13,569.924 1191.13,592.424 1212.5,610C 1242.9,632.854 1277.23,644.021 1315.5,643.5C 1351.68,643.909 1384.68,634.076 1414.5,614C 1437.86,597.116 1448.69,574.282 1447,545.5C 1445.07,535.311 1441.23,525.978 1435.5,517.5C 1437.5,515.487 1439.16,513.154 1440.5,510.5C 1460.24,506.846 1470.91,495.013 1472.5,475C 1472.06,470.758 1471.23,466.591 1470,462.5C 1468.06,458.818 1466.23,455.151 1464.5,451.5C 1473.95,401.882 1465.62,355.549 1439.5,312.5C 1448.57,318.059 1457.23,324.226 1465.5,331C 1483.06,329.449 1493.9,319.949 1498,302.5C 1499.96,291.25 1496.46,282.084 1487.5,275C 1461.4,257.699 1443.57,263.866 1434,293.5C 1433.5,297.486 1433.33,301.486 1433.5,305.5C 1433.16,307.225 1432.16,307.725 1430.5,307C 1419.27,300.431 1407.6,294.931 1395.5,290.5C 1397.6,258.271 1413.43,235.937 1443,223.5C 1477.27,217.147 1505.94,227.147 1529,253.5C 1544.17,276.966 1545.5,301.299 1533,326.5C 1524.25,342.413 1511.75,354.413 1495.5,362.5C 1532.46,413.679 1540.96,469.346 1521,529.5C 1498.41,583.577 1459.91,621.743 1405.5,644C 1409.69,647.69 1414.02,651.19 1418.5,654.5C 1420.18,653.408 1422.02,652.741 1424,652.5C 1438.46,655.48 1451.62,661.313 1463.5,670C 1512.26,707.447 1526.59,755.281 1506.5,813.5C 1502.27,814.795 1498.27,816.461 1494.5,818.5C 1493.83,818.5 1493.17,818.5 1492.5,818.5C 1492.06,818.565 1491.73,818.399 1491.5,818C 1503.81,792.859 1506.64,766.692 1500,739.5C 1493.29,719.948 1479.79,708.615 1459.5,705.5C 1460.13,708.493 1460.3,711.493 1460,714.5C 1458.27,716.602 1456.27,716.935 1454,715.5C 1452.53,712.244 1451.36,708.911 1450.5,705.5C 1446.12,706.01 1441.78,706.843 1437.5,708C 1436.25,709.828 1436.25,711.661 1437.5,713.5C 1427.42,715.853 1417.42,718.52 1407.5,721.5C 1406.03,714.229 1403.7,707.229 1400.5,700.5C 1403.97,694.39 1407.3,688.223 1410.5,682C 1409.67,677.344 1407.34,673.677 1403.5,671C 1401.83,670.333 1400.17,670.333 1398.5,671C 1394.03,676.468 1389.2,681.635 1384,686.5C 1382.09,685.182 1381.26,683.348 1381.5,681C 1382.13,675.263 1383.13,669.596 1384.5,664C 1382.18,660.498 1378.84,658.498 1374.5,658C 1371.83,657.333 1369.17,657.333 1366.5,658C 1363.8,663.953 1361.63,670.12 1360,676.5C 1356.21,677.795 1352.38,677.795 1348.5,676.5C 1346.91,670.888 1345.58,665.222 1344.5,659.5C 1337.79,659.448 1331.13,659.948 1324.5,661C 1324,661.5 1323.5,662 1323,662.5C 1322.67,668.833 1322.33,675.167 1322,681.5C 1310.01,689.99 1299.51,699.99 1290.5,711.5C 1288.24,710.781 1285.9,710.448 1283.5,710.5C 1284.51,704.098 1285.84,697.764 1287.5,691.5C 1286.57,686.733 1283.91,683.233 1279.5,681C 1271.36,676.253 1262.86,675.419 1254,678.5C 1253.05,678.905 1252.39,679.572 1252,680.5C 1251.27,684.657 1250.1,688.657 1248.5,692.5C 1237.51,683.34 1226.67,674.007 1216,664.5C 1209.37,666.6 1206.87,670.933 1208.5,677.5C 1215.14,682.642 1221.31,688.309 1227,694.5C 1228.01,696.025 1228.51,697.692 1228.5,699.5C 1218.43,698.9 1208.76,696.566 1199.5,692.5C 1197.65,693.189 1196.48,694.522 1196,696.5C 1195.5,699.482 1195.34,702.482 1195.5,705.5C 1194.52,706.765 1193.52,708.099 1192.5,709.5C 1188.95,711.131 1186.95,709.964 1186.5,706C 1186.83,703.516 1187.83,701.349 1189.5,699.5C 1166.26,698.542 1150.09,708.875 1141,730.5C 1129.86,763.751 1131.52,796.418 1146,828.5C 1150.67,837.854 1155.84,846.854 1161.5,855.5C 1146.05,844.647 1134.88,830.313 1128,812.5C 1119.84,789.906 1118.34,766.906 1123.5,743.5C 1126.52,731.462 1131.19,720.129 1137.5,709.5C 1159.4,677.37 1189.74,658.704 1228.5,653.5C 1231.91,653.296 1235.07,653.962 1238,655.5C 1239.68,653.649 1241.52,651.982 1243.5,650.5C 1193.38,634.519 1154.22,604.519 1126,560.5C 1096.96,510.244 1092.62,457.911 1113,403.5C 1118.71,389.065 1126.21,375.732 1135.5,363.5C 1100.78,345.268 1085.28,316.601 1089,277.5C 1096.46,254.037 1111.63,237.537 1134.5,228C 1172.14,212.439 1201.97,221.606 1224,255.5C 1229.98,266.767 1233.15,278.767 1233.5,291.5 Z"/></g>
<g><path style="opacity:1" fill="#fce9dd" d="M 1194.5,310.5 C 1184.76,316.729 1175.43,323.562 1166.5,331C 1164.87,331.494 1163.2,331.66 1161.5,331.5C 1149.85,329.691 1141.02,323.691 1135,313.5C 1126.21,291.896 1132.71,276.729 1154.5,268C 1163.86,264.154 1172.86,264.821 1181.5,270C 1193.75,280.92 1198.08,294.42 1194.5,310.5 Z"/></g>
<g><path style="opacity:1" fill="#fce9dd" d="M 1439.5,312.5 C 1436.75,310.757 1434.75,308.424 1433.5,305.5C 1433.33,301.486 1433.5,297.486 1434,293.5C 1443.57,263.866 1461.4,257.699 1487.5,275C 1496.46,282.084 1499.96,291.25 1498,302.5C 1493.9,319.949 1483.06,329.449 1465.5,331C 1457.23,324.226 1448.57,318.059 1439.5,312.5 Z"/></g>
<g><path style="opacity:0.994" fill="#c9b9b2" d="M 1366.5,282.5 C 1414.03,312.685 1438.69,356.185 1440.5,413C 1439.99,423.555 1438.99,434.055 1437.5,444.5C 1444.25,444.676 1450.25,446.676 1455.5,450.5C 1455.06,450.435 1454.73,450.601 1454.5,451C 1455.73,452.529 1457.23,453.696 1459,454.5C 1459.67,455.833 1459.67,457.167 1459,458.5C 1444.88,446.032 1430.88,446.032 1417,458.5C 1408.23,472.841 1410.07,485.675 1422.5,497C 1428.3,500.268 1434.3,502.268 1440.5,503C 1439.95,503.925 1439.29,504.758 1438.5,505.5C 1436.36,504.246 1434.36,504.246 1432.5,505.5C 1429.21,505.264 1426.21,504.264 1423.5,502.5C 1422.89,502.624 1422.56,502.957 1422.5,503.5C 1415.33,497.09 1407.66,491.423 1399.5,486.5C 1427.5,439.924 1428.67,392.59 1403,344.5C 1384.21,313.551 1357.05,294.551 1321.5,287.5C 1321.77,284.881 1321.44,282.381 1320.5,280C 1315.66,278.672 1313.33,280.506 1313.5,285.5C 1257.29,283.011 1216.46,306.677 1191,356.5C 1178.23,385.561 1175.4,415.561 1182.5,446.5C 1163.81,447.69 1153.48,457.524 1151.5,476C 1152.69,493.186 1161.85,502.353 1179,503.5C 1182.9,503.485 1186.74,502.985 1190.5,502C 1194.17,499.667 1197.83,497.333 1201.5,495C 1202.31,493.887 1202.97,492.721 1203.5,491.5C 1206.54,494.539 1209.21,497.873 1211.5,501.5C 1203.01,508.985 1196.01,517.651 1190.5,527.5C 1185.74,520.895 1180.74,514.395 1175.5,508C 1159.95,503.271 1150.95,492.771 1148.5,476.5C 1148.62,473.51 1149.29,470.677 1150.5,468C 1149.42,466.274 1149.26,464.441 1150,462.5C 1152.7,456.108 1157.03,451.108 1163,447.5C 1153.16,393.879 1166.33,346.879 1202.5,306.5C 1212.47,300.683 1222.8,295.683 1233.5,291.5C 1277,276.348 1321.33,273.348 1366.5,282.5 Z"/></g>
<g><path style="opacity:1" fill="#a79a95" d="M 1321.5,287.5 C 1321.86,294.004 1319.36,295.671 1314,292.5C 1313.5,290.19 1313.34,287.857 1313.5,285.5C 1313.33,280.506 1315.66,278.672 1320.5,280C 1321.44,282.381 1321.77,284.881 1321.5,287.5 Z"/></g>
<g><path style="opacity:1" fill="#ccbcb5" d="M 1313.5,285.5 C 1313.34,287.857 1313.5,290.19 1314,292.5C 1319.36,295.671 1321.86,294.004 1321.5,287.5C 1357.05,294.551 1384.21,313.551 1403,344.5C 1428.67,392.59 1427.5,439.924 1399.5,486.5C 1394.83,484.497 1390.16,482.497 1385.5,480.5C 1406.56,448.389 1411.9,413.722 1401.5,376.5C 1403.3,377.793 1404.96,379.293 1406.5,381C 1410.83,381.843 1412.83,380.01 1412.5,375.5C 1410.93,364.602 1404.6,358.935 1393.5,358.5C 1367.79,314.316 1329.46,295.816 1278.5,303C 1228.48,317.492 1200.32,350.659 1194,402.5C 1192.56,419.649 1194.73,436.315 1200.5,452.5C 1200.17,452.833 1199.83,453.167 1199.5,453.5C 1194.88,449.679 1189.88,447.345 1184.5,446.5C 1183.83,446.5 1183.17,446.5 1182.5,446.5C 1175.4,415.561 1178.23,385.561 1191,356.5C 1216.46,306.677 1257.29,283.011 1313.5,285.5 Z"/></g>
<g><path style="opacity:1" fill="#c4b4ae" d="M 1366.5,282.5 C 1376.4,284.391 1386.06,287.057 1395.5,290.5C 1407.6,294.931 1419.27,300.431 1430.5,307C 1432.16,307.725 1433.16,307.225 1433.5,305.5C 1434.75,308.424 1436.75,310.757 1439.5,312.5C 1465.62,355.549 1473.95,401.882 1464.5,451.5C 1466.23,455.151 1468.06,458.818 1470,462.5C 1471.23,466.591 1472.06,470.758 1472.5,475C 1470.91,495.013 1460.24,506.846 1440.5,510.5C 1439.16,513.154 1437.5,515.487 1435.5,517.5C 1431.17,512.833 1426.83,508.167 1422.5,503.5C 1422.56,502.957 1422.89,502.624 1423.5,502.5C 1426.21,504.264 1429.21,505.264 1432.5,505.5C 1453.53,507.661 1465.87,498.161 1469.5,477C 1469.49,470.152 1467.66,463.652 1464,457.5C 1461.58,454.577 1458.75,452.243 1455.5,450.5C 1450.25,446.676 1444.25,444.676 1437.5,444.5C 1438.99,434.055 1439.99,423.555 1440.5,413C 1438.69,356.185 1414.03,312.685 1366.5,282.5 Z"/></g>
<g><path style="opacity:1" fill="#d0c0b8" d="M 1393.5,358.5 C 1389.94,358.408 1386.61,359.241 1383.5,361C 1382.41,363.064 1382.24,365.231 1383,367.5C 1386.95,368.19 1390.78,369.356 1394.5,371C 1397.6,371.935 1399.93,373.769 1401.5,376.5C 1411.9,413.722 1406.56,448.389 1385.5,480.5C 1377.32,476.647 1368.98,474.314 1360.5,473.5C 1351.03,468.344 1341.03,465.01 1330.5,463.5C 1338.93,457.74 1345.59,450.407 1350.5,441.5C 1352.31,445.599 1354.97,449.099 1358.5,452C 1368.81,455.071 1375.31,451.238 1378,440.5C 1378.91,435.311 1378.41,430.311 1376.5,425.5C 1381.14,396.25 1372.81,371.083 1351.5,350C 1324.87,328.282 1295.87,324.615 1264.5,339C 1255,344.495 1246.66,351.495 1239.5,360C 1241.71,360.191 1243.71,360.691 1245.5,361.5C 1228.47,360.363 1220.8,368.197 1222.5,385C 1223.13,386.31 1224.13,387.144 1225.5,387.5C 1217.97,414.248 1221.8,439.248 1237,462.5C 1241.34,468.003 1246.17,473.003 1251.5,477.5C 1236.91,483.46 1223.58,491.46 1211.5,501.5C 1209.21,497.873 1206.54,494.539 1203.5,491.5C 1203.63,490.761 1203.46,490.094 1203,489.5C 1202.38,491.116 1201.38,492.449 1200,493.5C 1199.31,492.975 1198.81,492.308 1198.5,491.5C 1209.21,473.69 1205.04,460.357 1186,451.5C 1183.13,452.31 1180.63,451.476 1178.5,449C 1180.97,448.963 1182.97,448.13 1184.5,446.5C 1189.88,447.345 1194.88,449.679 1199.5,453.5C 1199.83,453.167 1200.17,452.833 1200.5,452.5C 1194.73,436.315 1192.56,419.649 1194,402.5C 1200.32,350.659 1228.48,317.492 1278.5,303C 1329.46,295.816 1367.79,314.316 1393.5,358.5 Z"/></g>
<g><path style="opacity:1" fill="#a69995" d="M 1313.5,307.5 C 1318.08,306.592 1320.42,308.425 1320.5,313C 1320.04,317.863 1319.38,322.697 1318.5,327.5C 1316.63,328.767 1314.8,328.767 1313,327.5C 1312.21,320.753 1312.37,314.086 1313.5,307.5 Z"/></g>
<g><path style="opacity:1" fill="#d7c5bd" d="M 1376.5,425.5 C 1369.59,414.443 1361.76,413.777 1353,423.5C 1350.77,429.268 1349.94,435.268 1350.5,441.5C 1345.59,450.407 1338.93,457.74 1330.5,463.5C 1319.16,463.333 1307.83,463.5 1296.5,464C 1287.48,465.514 1279.15,468.681 1271.5,473.5C 1271.08,472.876 1270.42,472.543 1269.5,472.5C 1263.5,474.168 1257.5,475.834 1251.5,477.5C 1246.17,473.003 1241.34,468.003 1237,462.5C 1221.8,439.248 1217.97,414.248 1225.5,387.5C 1227.37,387.141 1228.87,386.141 1230,384.5C 1234.93,376.579 1241.93,371.246 1251,368.5C 1252.39,363.72 1250.56,361.386 1245.5,361.5C 1243.71,360.691 1241.71,360.191 1239.5,360C 1246.66,351.495 1255,344.495 1264.5,339C 1295.87,324.615 1324.87,328.282 1351.5,350C 1372.81,371.083 1381.14,396.25 1376.5,425.5 Z"/></g>
<g><path style="opacity:1" fill="#c4b4ae" d="M 1202.5,306.5 C 1166.33,346.879 1153.16,393.879 1163,447.5C 1157.03,451.108 1152.7,456.108 1150,462.5C 1149.26,464.441 1149.42,466.274 1150.5,468C 1149.29,470.677 1148.62,473.51 1148.5,476.5C 1150.95,492.771 1159.95,503.271 1175.5,508C 1180.74,514.395 1185.74,520.895 1190.5,527.5C 1188.63,532.442 1186.96,537.442 1185.5,542.5C 1178.49,535.658 1171.99,528.325 1166,520.5C 1132.94,471.781 1123.94,418.781 1139,361.5C 1145.68,350.483 1154.18,340.983 1164.5,333C 1163.26,332.768 1162.26,332.268 1161.5,331.5C 1163.2,331.66 1164.87,331.494 1166.5,331C 1175.43,323.562 1184.76,316.729 1194.5,310.5C 1197.19,309.153 1199.86,307.82 1202.5,306.5 Z"/></g>
<g><path style="opacity:1" fill="#a79a96" d="M 1312.5,341.5 C 1314.47,341.261 1316.3,341.594 1318,342.5C 1318.67,348.5 1318.67,354.5 1318,360.5C 1315.67,363.167 1313.33,363.167 1311,360.5C 1309.97,353.959 1310.47,347.626 1312.5,341.5 Z"/></g>
<g><path style="opacity:1" fill="#593b22" d="M 1393.5,358.5 C 1404.6,358.935 1410.93,364.602 1412.5,375.5C 1412.83,380.01 1410.83,381.843 1406.5,381C 1404.96,379.293 1403.3,377.793 1401.5,376.5C 1399.93,373.769 1397.6,371.935 1394.5,371C 1390.78,369.356 1386.95,368.19 1383,367.5C 1382.24,365.231 1382.41,363.064 1383.5,361C 1386.61,359.241 1389.94,358.408 1393.5,358.5 Z"/></g>
<g><path style="opacity:1" fill="#593b22" d="M 1245.5,361.5 C 1250.56,361.386 1252.39,363.72 1251,368.5C 1241.93,371.246 1234.93,376.579 1230,384.5C 1228.87,386.141 1227.37,387.141 1225.5,387.5C 1224.13,387.144 1223.13,386.31 1222.5,385C 1220.8,368.197 1228.47,360.363 1245.5,361.5 Z"/></g>
<g><path style="opacity:1" fill="#deccc3" d="M 1318.5,453.5 C 1318.66,450.482 1318.5,447.482 1318,444.5C 1315.67,441.833 1313.33,441.833 1311,444.5C 1310.5,448.486 1310.33,452.486 1310.5,456.5C 1309.77,458.045 1308.44,458.878 1306.5,459C 1298.57,460.034 1290.91,459.034 1283.5,456C 1280.24,454.884 1277.58,453.051 1275.5,450.5C 1282.07,442.344 1283.24,433.344 1279,423.5C 1272.4,415.148 1265.24,414.482 1257.5,421.5C 1253.68,396.486 1263.52,378.819 1287,368.5C 1309.86,363.003 1327.19,370.337 1339,390.5C 1348.1,411.734 1344.93,430.9 1329.5,448C 1326.61,450.557 1323.44,452.724 1320,454.5C 1319.62,453.944 1319.12,453.611 1318.5,453.5 Z"/></g>
<g><path style="opacity:1" fill="#a99b97" d="M 1311.5,375.5 C 1314.04,375.104 1316.21,375.771 1318,377.5C 1318.67,383.167 1318.67,388.833 1318,394.5C 1315.93,396.648 1313.59,396.982 1311,395.5C 1310.21,388.753 1310.37,382.086 1311.5,375.5 Z"/></g>
<g><path style="opacity:1" fill="#a69995" d="M 1311.5,409.5 C 1313.47,409.261 1315.3,409.594 1317,410.5C 1317.67,416.833 1317.67,423.167 1317,429.5C 1314.73,430.935 1312.73,430.602 1311,428.5C 1310.21,422.085 1310.38,415.752 1311.5,409.5 Z"/></g>
<g><path style="opacity:1" fill="#583920" d="M 1275.5,450.5 C 1268.45,455.23 1262.28,454.23 1257,447.5C 1252.21,438.673 1252.37,430.007 1257.5,421.5C 1265.24,414.482 1272.4,415.148 1279,423.5C 1283.24,433.344 1282.07,442.344 1275.5,450.5 Z"/></g>
<g><path style="opacity:1" fill="#583920" d="M 1376.5,425.5 C 1378.41,430.311 1378.91,435.311 1378,440.5C 1375.31,451.238 1368.81,455.071 1358.5,452C 1354.97,449.099 1352.31,445.599 1350.5,441.5C 1349.94,435.268 1350.77,429.268 1353,423.5C 1361.76,413.777 1369.59,414.443 1376.5,425.5 Z"/></g>
<g><path style="opacity:1" fill="#a89b96" d="M 1318.5,453.5 C 1317.48,458.757 1314.82,459.757 1310.5,456.5C 1310.33,452.486 1310.5,448.486 1311,444.5C 1313.33,441.833 1315.67,441.833 1318,444.5C 1318.5,447.482 1318.66,450.482 1318.5,453.5 Z"/></g>
<g><path style="opacity:1" fill="#d1b7b4" d="M 1455.5,450.5 C 1458.75,452.243 1461.58,454.577 1464,457.5C 1467.66,463.652 1469.49,470.152 1469.5,477C 1465.87,498.161 1453.53,507.661 1432.5,505.5C 1434.36,504.246 1436.36,504.246 1438.5,505.5C 1439.29,504.758 1439.95,503.925 1440.5,503C 1434.3,502.268 1428.3,500.268 1422.5,497C 1410.07,485.675 1408.23,472.841 1417,458.5C 1430.88,446.032 1444.88,446.032 1459,458.5C 1459.67,457.167 1459.67,455.833 1459,454.5C 1457.23,453.696 1455.73,452.529 1454.5,451C 1454.73,450.601 1455.06,450.435 1455.5,450.5 Z"/></g>
<g><path style="opacity:1" fill="#d5bab7" d="M 1182.5,446.5 C 1183.17,446.5 1183.83,446.5 1184.5,446.5C 1182.97,448.13 1180.97,448.963 1178.5,449C 1180.63,451.476 1183.13,452.31 1186,451.5C 1205.04,460.357 1209.21,473.69 1198.5,491.5C 1198.81,492.308 1199.31,492.975 1200,493.5C 1201.38,492.449 1202.38,491.116 1203,489.5C 1203.46,490.094 1203.63,490.761 1203.5,491.5C 1202.97,492.721 1202.31,493.887 1201.5,495C 1197.83,497.333 1194.17,499.667 1190.5,502C 1186.74,502.985 1182.9,503.485 1179,503.5C 1161.85,502.353 1152.69,493.186 1151.5,476C 1153.48,457.524 1163.81,447.69 1182.5,446.5 Z"/></g>
<g><path style="opacity:1" fill="#e2bbbc" d="M 1435.5,457.5 C 1455.15,458.137 1461.98,467.804 1456,486.5C 1446.2,497.763 1436.04,498.43 1425.5,488.5C 1418.77,479.701 1418.94,471.035 1426,462.5C 1429.13,460.487 1432.29,458.82 1435.5,457.5 Z"/></g>
<g><path style="opacity:1" fill="#e4bcbd" d="M 1176.5,455.5 C 1193.55,456.71 1200.72,465.71 1198,482.5C 1191.67,495.074 1181.84,498.907 1168.5,494C 1157.89,486.132 1155.72,476.299 1162,464.5C 1165.77,459.545 1170.6,456.545 1176.5,455.5 Z"/></g>
<g><path style="opacity:1" fill="#583920" d="M 1330.5,463.5 C 1341.03,465.01 1351.03,468.344 1360.5,473.5C 1373.69,483.831 1376.19,496.498 1368,511.5C 1356.51,527.994 1341.01,538.661 1321.5,543.5C 1321.5,558.5 1321.5,573.5 1321.5,588.5C 1335.03,587.202 1348.03,583.868 1360.5,578.5C 1366,579.342 1367.67,582.342 1365.5,587.5C 1339.02,601.416 1311.36,604.249 1282.5,596C 1278.88,593.839 1277.71,590.672 1279,586.5C 1280.3,585.02 1281.97,584.354 1284,584.5C 1292.32,586.97 1300.82,588.304 1309.5,588.5C 1309.5,573.5 1309.5,558.5 1309.5,543.5C 1290.03,539.022 1274.53,528.688 1263,512.5C 1256.08,497.239 1258.91,484.239 1271.5,473.5C 1279.15,468.681 1287.48,465.514 1296.5,464C 1307.83,463.5 1319.16,463.333 1330.5,463.5 Z"/></g>
<g><path style="opacity:0.962" fill="#2483c5" d="M 377.5,471.5 C 384.175,471.334 390.842,471.5 397.5,472C 398.416,472.374 399.25,472.874 400,473.5C 398.12,492.47 398.453,511.47 401,530.5C 402.299,542.718 408.466,546.551 419.5,542C 421.068,539.696 422.235,537.196 423,534.5C 424.689,513.678 424.856,493.012 423.5,472.5C 430.582,472.096 437.415,473.096 444,475.5C 445.489,492.682 445.989,509.849 445.5,527C 444.395,537.532 441.895,547.699 438,557.5C 426.135,572.766 411.635,575.933 394.5,567C 383.846,556.06 378.012,542.894 377,527.5C 376.62,516.494 376.12,505.494 375.5,494.5C 376.36,488.298 376.36,482.132 375.5,476C 376.044,474.415 376.711,472.915 377.5,471.5 Z"/></g>
<g><path style="opacity:0.96" fill="#2483c5" d="M 577.5,471.5 C 588.216,471.156 598.882,471.656 609.5,473C 617.349,475.665 623.849,480.165 629,486.5C 634.654,497.565 637.154,509.398 636.5,522C 637.74,536.947 633.406,549.947 623.5,561C 611.705,568.574 598.705,571.74 584.5,570.5C 580.82,570.221 577.153,569.888 573.5,569.5C 569.716,537.701 567.716,505.867 567.5,474C 570.909,473.004 574.242,472.171 577.5,471.5 Z M 592.5,490.5 C 605.104,491.937 612.27,498.937 614,511.5C 616.552,521.411 615.885,531.077 612,540.5C 607.548,544.672 602.215,546.672 596,546.5C 594.674,546.245 593.674,545.578 593,544.5C 591.676,527.994 590.51,511.494 589.5,495C 589.957,493.06 590.957,491.56 592.5,490.5 Z"/></g>
<g><path style="opacity:0.963" fill="#2483c5" d="M 685.5,471.5 C 696.5,471.5 707.5,471.5 718.5,471.5C 723.921,503.127 727.421,535.127 729,567.5C 724.502,569.004 719.835,569.671 715,569.5C 711.582,569.481 708.249,569.147 705,568.5C 704.068,557.85 703.401,547.184 703,536.5C 696.864,535.47 690.864,536.137 685,538.5C 682.376,548.702 680.543,559.036 679.5,569.5C 672.159,569.666 664.826,569.5 657.5,569C 656.342,567.991 655.675,566.658 655.5,565C 661.108,535.962 667.608,507.128 675,478.5C 675.265,476.349 676.265,474.682 678,473.5C 680.669,472.984 683.169,472.317 685.5,471.5 Z M 695.5,491.5 C 697.167,491.5 698.833,491.5 700.5,491.5C 701.481,498.486 701.981,505.486 702,512.5C 697.667,513.167 693.333,513.833 689,514.5C 689.391,509.86 690.058,505.193 691,500.5C 691.765,497.017 693.265,494.017 695.5,491.5 Z"/></g>
<g><path style="opacity:0.964" fill="#2483c5" d="M 957.5,471.5 C 968.5,471.5 979.5,471.5 990.5,471.5C 996.285,503.562 999.951,535.895 1001.5,568.5C 993.501,569.658 985.501,569.658 977.5,568.5C 976.346,557.384 975.679,546.384 975.5,535.5C 969.273,535.389 963.273,536.389 957.5,538.5C 954.574,548.647 952.574,558.98 951.5,569.5C 944.492,569.666 937.492,569.5 930.5,569C 929.28,567.475 928.613,565.641 928.5,563.5C 933.709,535.289 939.876,507.289 947,479.5C 948.426,474.043 951.926,471.377 957.5,471.5 Z M 967.5,491.5 C 969.167,491.5 970.833,491.5 972.5,491.5C 973.773,498.452 974.273,505.452 974,512.5C 969.866,513.196 965.7,513.863 961.5,514.5C 961.167,514.167 960.833,513.833 960.5,513.5C 961.88,508.559 963.046,503.559 964,498.5C 964.517,495.744 965.684,493.411 967.5,491.5 Z"/></g>
<g><path style="opacity:1" fill="#fce9dd" d="M 1271.5,473.5 C 1258.91,484.239 1256.08,497.239 1263,512.5C 1274.53,528.688 1290.03,539.022 1309.5,543.5C 1309.5,558.5 1309.5,573.5 1309.5,588.5C 1300.82,588.304 1292.32,586.97 1284,584.5C 1281.97,584.354 1280.3,585.02 1279,586.5C 1277.71,590.672 1278.88,593.839 1282.5,596C 1311.36,604.249 1339.02,601.416 1365.5,587.5C 1367.67,582.342 1366,579.342 1360.5,578.5C 1348.03,583.868 1335.03,587.202 1321.5,588.5C 1321.5,573.5 1321.5,558.5 1321.5,543.5C 1341.01,538.661 1356.51,527.994 1368,511.5C 1376.19,496.498 1373.69,483.831 1360.5,473.5C 1368.98,474.314 1377.32,476.647 1385.5,480.5C 1390.16,482.497 1394.83,484.497 1399.5,486.5C 1407.66,491.423 1415.33,497.09 1422.5,503.5C 1426.83,508.167 1431.17,512.833 1435.5,517.5C 1441.23,525.978 1445.07,535.311 1447,545.5C 1448.69,574.282 1437.86,597.116 1414.5,614C 1384.68,634.076 1351.68,643.909 1315.5,643.5C 1277.23,644.021 1242.9,632.854 1212.5,610C 1191.13,592.424 1182.13,569.924 1185.5,542.5C 1186.96,537.442 1188.63,532.442 1190.5,527.5C 1196.01,517.651 1203.01,508.985 1211.5,501.5C 1223.58,491.46 1236.91,483.46 1251.5,477.5C 1257.5,475.834 1263.5,474.168 1269.5,472.5C 1270.42,472.543 1271.08,472.876 1271.5,473.5 Z"/></g>
<g><path style="opacity:0.954" fill="#2483c5" d="M 779.5,473.5 C 791.304,471.637 801.971,474.137 811.5,481C 815.604,484.111 816.604,487.778 814.5,492C 809.898,495.618 805.064,498.785 800,501.5C 796.894,500.063 794.394,497.896 792.5,495C 782.197,492.591 776.03,496.758 774,507.5C 772.475,517.269 773.142,526.935 776,536.5C 780.633,547.413 788.133,550.246 798.5,545C 800.758,542.233 803.425,540.066 806.5,538.5C 811.419,541.912 815.919,545.912 820,550.5C 820.667,552.5 820.667,554.5 820,556.5C 804.498,572.277 786.998,574.777 767.5,564C 758.282,556.741 752.782,547.241 751,535.5C 749.33,520.834 750.664,506.5 755,492.5C 760.4,482.6 768.567,476.266 779.5,473.5 Z"/></g>
<g><path style="opacity:0.957" fill="#2483c5" d="M 301.5,474.5 C 316.504,474.333 331.504,474.5 346.5,475C 348.421,475.36 350.088,476.194 351.5,477.5C 352.791,483.476 352.791,489.476 351.5,495.5C 349.894,496.077 348.228,496.41 346.5,496.5C 337.853,495.335 329.186,494.835 320.5,495C 319.878,496.569 319.544,498.236 319.5,500C 320.369,503.248 320.703,506.415 320.5,509.5C 327.71,511.132 335.043,511.965 342.5,512C 343.931,512.465 345.097,513.299 346,514.5C 346.499,519.823 346.666,525.156 346.5,530.5C 339.159,530.334 331.826,530.5 324.5,531C 323.584,531.374 322.75,531.874 322,532.5C 323.155,545.094 323.988,557.761 324.5,570.5C 317.146,570.521 309.813,570.187 302.5,569.5C 301.205,541.947 300.371,514.28 300,486.5C 299.661,483.964 299.161,481.464 298.5,479C 298.957,477.06 299.957,475.56 301.5,474.5 Z"/></g>
<g><path style="opacity:0.956" fill="#2483c5" d="M 891.5,474.5 C 896.301,474.35 900.967,475.016 905.5,476.5C 906.506,495.097 907.173,513.597 907.5,532C 904.975,564.762 887.975,576.429 856.5,567C 846.081,561.952 840.581,553.785 840,542.5C 845.466,537.7 851.466,533.7 858,530.5C 859.261,530.759 860.261,531.426 861,532.5C 862.945,539.443 867.278,544.11 874,546.5C 881.289,544.287 884.956,539.287 885,531.5C 885.826,514.09 884.993,496.757 882.5,479.5C 882.833,478.5 883.167,477.5 883.5,476.5C 886.311,475.92 888.977,475.254 891.5,474.5 Z"/></g>
<g><path style="opacity:0.96" fill="#2483c5" d="M 479.5,477.5 C 483.305,478.835 487.305,479.668 491.5,480C 492,480.5 492.5,481 493,481.5C 502.592,498.754 512.592,515.754 523,532.5C 522.427,526.66 522.594,520.827 523.5,515C 522.046,503.549 521.38,492.049 521.5,480.5C 527.719,479.671 533.886,480.005 540,481.5C 541.608,510.469 541.941,539.469 541,568.5C 538.617,569.766 535.95,570.432 533,570.5C 528.778,570.441 524.611,569.941 520.5,569C 511.541,554.249 502.707,539.416 494,524.5C 494.237,539.82 494.403,555.153 494.5,570.5C 486.953,570.495 479.787,569.161 473,566.5C 472.664,562.311 472.164,558.144 471.5,554C 471.487,529.864 471.654,505.697 472,481.5C 472.576,478.876 473.91,478.209 476,479.5C 477.302,478.915 478.469,478.249 479.5,477.5 Z"/></g>
<g><path style="opacity:1" fill="#d7d0ca" d="M 1292.5,481.5 C 1291.77,482.708 1291.43,484.041 1291.5,485.5C 1285.65,486.537 1279.98,488.203 1274.5,490.5C 1273.7,490.043 1273.37,489.376 1273.5,488.5C 1276.05,483.457 1280.05,479.957 1285.5,478C 1287.55,477.675 1289.55,478.009 1291.5,479C 1292.25,479.671 1292.59,480.504 1292.5,481.5 Z"/></g>
<g><path style="opacity:1" fill="#bcb0a6" d="M 1292.5,481.5 C 1293.48,484.287 1293.81,487.287 1293.5,490.5C 1285.94,493.019 1278.27,495.352 1270.5,497.5C 1270.5,496.833 1270.5,496.167 1270.5,495.5C 1270.55,492.654 1271.55,490.32 1273.5,488.5C 1273.37,489.376 1273.7,490.043 1274.5,490.5C 1279.98,488.203 1285.65,486.537 1291.5,485.5C 1291.43,484.041 1291.77,482.708 1292.5,481.5 Z"/></g>
<g><path style="opacity:1" fill="#9a8778" d="M 1293.5,490.5 C 1292.17,494.167 1290.83,497.833 1289.5,501.5C 1283.16,501.995 1276.83,502.328 1270.5,502.5C 1270.5,500.833 1270.5,499.167 1270.5,497.5C 1278.27,495.352 1285.94,493.019 1293.5,490.5 Z"/></g>
<g><path style="opacity:1" fill="#86705e" d="M 1270.5,495.5 C 1270.5,496.167 1270.5,496.833 1270.5,497.5C 1270.5,499.167 1270.5,500.833 1270.5,502.5C 1276.83,502.328 1283.16,501.995 1289.5,501.5C 1289.67,502.822 1289.34,503.989 1288.5,505C 1283.47,505.853 1278.64,507.353 1274,509.5C 1271.7,508.249 1270.36,506.249 1270,503.5C 1269.2,500.633 1269.37,497.966 1270.5,495.5 Z"/></g>
<g><path style="opacity:0.969" fill="#eb1a3a" d="M 252.5,601.5 C 255.5,601.5 258.5,601.5 261.5,601.5C 262.14,611.14 261.974,620.807 261,630.5C 259.146,644.146 257.479,657.812 256,671.5C 252.393,694.621 248.059,717.621 243,740.5C 237.079,742.801 230.913,744.134 224.5,744.5C 222.192,744.635 220.192,743.969 218.5,742.5C 214.389,729.938 210.556,717.271 207,704.5C 205.748,702.999 204.748,701.332 204,699.5C 197.35,714.136 190.683,728.803 184,743.5C 181.275,744.48 178.442,745.146 175.5,745.5C 168.833,744.267 162.166,743.101 155.5,742C 154.874,741.25 154.374,740.416 154,739.5C 149.604,698.295 146.104,657.129 143.5,616C 143.741,612.793 144.241,609.626 145,606.5C 149.92,605.846 154.92,605.512 160,605.5C 174.594,601.918 179.427,607.085 174.5,621C 176.527,628.43 176.86,635.93 175.5,643.5C 177.707,654.604 178.04,665.771 176.5,677C 176.774,681.599 177.608,686.099 179,690.5C 183.936,679.626 188.603,668.626 193,657.5C 198.735,654.401 204.902,653.235 211.5,654C 212.931,654.465 214.097,655.299 215,656.5C 219,665.833 223,675.167 227,684.5C 227.92,681.899 228.587,679.232 229,676.5C 231.325,653.887 232.992,631.22 234,608.5C 234.309,607.234 234.809,606.067 235.5,605C 240.75,603.826 246.084,603.159 251.5,603C 252.056,602.617 252.389,602.117 252.5,601.5 Z"/></g>
<g><path style="opacity:0.969" fill="#eb1a3a" d="M 1047.5,601.5 C 1051.03,600.989 1054.2,601.656 1057,603.5C 1057.31,615.745 1056.47,627.911 1054.5,640C 1054.74,640.873 1055.07,641.707 1055.5,642.5C 1051.5,668.165 1047.34,693.832 1043,719.5C 1041.58,726.583 1039.91,733.583 1038,740.5C 1032.25,742.794 1026.25,744.127 1020,744.5C 1017.53,744.66 1015.36,743.993 1013.5,742.5C 1009.95,729.737 1006.12,717.071 1002,704.5C 1001.25,702.668 1000.25,701.001 999,699.5C 992.984,714.774 986.151,729.608 978.5,744C 975.845,744.564 973.179,745.064 970.5,745.5C 963.874,744.137 957.207,742.97 950.5,742C 949.545,738.901 948.711,735.734 948,732.5C 944.465,694.912 941.632,657.246 939.5,619.5C 939.529,615.116 939.862,610.782 940.5,606.5C 950.394,605.182 960.227,605.182 970,606.5C 970.579,608.649 971.079,610.815 971.5,613C 971.238,623.169 970.905,633.335 970.5,643.5C 971.923,659.151 973.09,674.817 974,690.5C 979.515,679.463 984.515,668.129 989,656.5C 994.556,653.993 1000.39,653.159 1006.5,654C 1007.62,654.249 1008.62,654.749 1009.5,655.5C 1014.2,664.904 1018.37,674.57 1022,684.5C 1022.97,682.608 1023.64,680.608 1024,678.5C 1026.3,654.182 1028.3,629.849 1030,605.5C 1035.32,603.856 1040.82,603.023 1046.5,603C 1047.06,602.617 1047.39,602.117 1047.5,601.5 Z"/></g>
<g><path style="opacity:0.972" fill="#eb1a3a" d="M 505.5,604.5 C 517.52,604.328 529.52,604.662 541.5,605.5C 547.83,642.263 552.663,679.263 556,716.5C 556.5,724.827 556.666,733.16 556.5,741.5C 551.944,744.119 547.277,746.786 542.5,749.5C 534.108,760.143 536.775,765.81 550.5,766.5C 558.183,765.405 565.85,764.572 573.5,764C 577.01,766.169 579.177,769.336 580,773.5C 580.667,775.833 580.667,778.167 580,780.5C 575.422,782.859 570.589,784.692 565.5,786C 558.755,786.716 552.089,787.882 545.5,789.5C 535.072,789.388 525.738,786.221 517.5,780C 508.519,765.675 510.019,752.509 522,740.5C 521.976,729.663 521.476,718.83 520.5,708C 522.133,703.48 521.799,699.146 519.5,695C 511.2,695.233 503.033,696.4 495,698.5C 491.182,713.175 488.016,728.008 485.5,743C 475.518,742.871 465.518,742.537 455.5,742C 453.496,739.159 452.996,735.993 454,732.5C 461.738,691.227 471.238,650.394 482.5,610C 483.682,608.265 485.349,607.265 487.5,607C 493.634,606.088 499.634,605.255 505.5,604.5 Z M 513.5,632.5 C 514.496,632.414 515.329,632.748 516,633.5C 518.266,643.355 519.433,653.355 519.5,663.5C 512.85,664.298 506.183,664.965 499.5,665.5C 500.625,654.562 503.291,644.062 507.5,634C 509.708,633.809 511.708,633.309 513.5,632.5 Z"/></g>
<g><path style="opacity:0.971" fill="#eb1a3a" d="M 615.5,605.5 C 621.383,605.675 627.217,606.341 633,607.5C 640.893,605.923 648.56,606.59 656,609.5C 657.331,617.875 656.164,625.875 652.5,633.5C 643.852,634.097 635.185,634.264 626.5,634C 625.707,635.085 625.04,636.252 624.5,637.5C 626.146,672.654 627.813,707.821 629.5,743C 629.355,743.772 629.022,744.439 628.5,745C 618.289,746.87 608.123,746.703 598,744.5C 596.101,708.834 595.434,673.167 596,637.5C 595.196,636.196 594.029,635.529 592.5,635.5C 583.522,636.401 574.522,637.067 565.5,637.5C 564.508,633.518 563.508,629.518 562.5,625.5C 562.53,619.974 562.863,614.474 563.5,609C 580.957,607.905 598.29,606.738 615.5,605.5 Z"/></g>
<g><path style="opacity:0.963" fill="#eb1a3a" d="M 294.5,606.5 C 297.888,606.188 300.388,607.521 302,610.5C 307.252,623.829 313.252,636.829 320,649.5C 326.568,635.871 334.068,622.704 342.5,610C 343.729,609.219 345.062,608.719 346.5,608.5C 353.31,610.04 359.977,612.207 366.5,615C 367.097,616.062 367.43,617.228 367.5,618.5C 356.821,638.854 346.321,659.521 336,680.5C 335.436,683.155 334.936,685.821 334.5,688.5C 335.418,703.199 335.752,717.866 335.5,732.5C 335.137,736.169 333.804,739.336 331.5,742C 327.236,742.371 323.069,743.204 319,744.5C 314.989,742.809 310.822,741.809 306.5,741.5C 306.507,720.486 306.674,699.486 307,678.5C 302.584,670.667 297.918,663 293,655.5C 285.924,642.349 279.091,629.016 272.5,615.5C 272.928,612.571 274.595,610.737 277.5,610C 283.301,608.816 288.968,607.649 294.5,606.5 Z"/></g>
<g><path style="opacity:0.985" fill="#2483c5" d="M 845.5,639.5 C 845.5,676.5 845.5,713.5 845.5,750.5C 825.517,739.693 808.017,725.693 793,708.5C 775.754,687.749 769.754,664.083 775,637.5C 780.873,615.139 795.373,604.972 818.5,607C 835.268,611.276 844.268,622.11 845.5,639.5 Z"/></g>
<g><path style="opacity:0.984" fill="#eb1a3b" d="M 845.5,750.5 C 845.5,713.5 845.5,676.5 845.5,639.5C 847.196,628.612 852.196,619.446 860.5,612C 875.139,604.388 889.472,605.055 903.5,614C 914.518,625.547 919.518,639.381 918.5,655.5C 918.486,673.71 912.986,690.043 902,704.5C 886.474,723.998 867.64,739.331 845.5,750.5 Z"/></g>
<g><path style="opacity:0.967" fill="#eb1a3a" d="M 679.5,607.5 C 684.978,607.149 690.311,607.816 695.5,609.5C 695.833,610.167 696.167,610.833 696.5,611.5C 697.679,626.478 698.679,641.478 699.5,656.5C 701.193,654.973 703.027,653.64 705,652.5C 708.854,646.8 713.188,641.467 718,636.5C 724.484,627.687 730.317,618.52 735.5,609C 744.54,611.296 751.706,616.463 757,624.5C 757.755,627.303 757.422,629.97 756,632.5C 746.057,645.428 736.557,658.595 727.5,672C 739.002,689.193 750.169,706.693 761,724.5C 762.293,728.582 761.126,731.749 757.5,734C 752.62,736.607 747.62,738.94 742.5,741C 740.167,741.667 737.833,741.667 735.5,741C 726.113,724.386 716.613,707.886 707,691.5C 704.365,692.473 702.365,694.14 701,696.5C 701.336,708.277 702.169,720.11 703.5,732C 703.617,735.67 702.951,739.17 701.5,742.5C 694.293,743.17 687.126,744.17 680,745.5C 677.648,745.695 675.648,745.028 674,743.5C 670.815,710.688 668.648,677.688 667.5,644.5C 669.132,635.587 668.799,626.753 666.5,618C 666.889,614.769 667.889,611.769 669.5,609C 673.025,608.821 676.359,608.321 679.5,607.5 Z"/></g>
<g><path style="opacity:0.97" fill="#eb1a3b" d="M 1137.5,709.5 C 1131.19,720.129 1126.52,731.462 1123.5,743.5C 1110.76,743.957 1098.09,743.291 1085.5,741.5C 1081.52,742.164 1077.52,742.497 1073.5,742.5C 1072.92,739.33 1072.25,736.163 1071.5,733C 1071,694.511 1071.5,656.011 1073,617.5C 1075.07,615.36 1077.4,614.693 1080,615.5C 1101.68,610.146 1123.85,607.812 1146.5,608.5C 1146.29,610.92 1146.63,613.253 1147.5,615.5C 1146.98,621.773 1145.98,627.94 1144.5,634C 1142.29,635.044 1139.95,635.71 1137.5,636C 1126.82,636.389 1116.16,636.889 1105.5,637.5C 1104.29,643.045 1104.29,648.545 1105.5,654C 1116.21,654.915 1126.88,656.248 1137.5,658C 1138,658.5 1138.5,659 1139,659.5C 1139.81,667.413 1139.65,675.246 1138.5,683C 1127.36,683.004 1116.36,684.004 1105.5,686C 1104.87,686.75 1104.37,687.584 1104,688.5C 1103.28,694.839 1102.94,701.172 1103,707.5C 1104.07,709.099 1105.57,710.099 1107.5,710.5C 1117.47,710.468 1127.47,710.135 1137.5,709.5 Z"/></g>
<g><path style="opacity:0.966" fill="#eb1a3a" d="M 423.5,609.5 C 429.956,609.232 436.289,609.899 442.5,611.5C 445.664,639.598 446.664,667.598 445.5,695.5C 439.023,738.789 415.023,753.289 373.5,739C 361.592,732.353 353.592,722.519 349.5,709.5C 349.848,707.303 350.848,705.47 352.5,704C 359.823,698.002 367.656,692.835 376,688.5C 380.093,689.01 382.093,691.343 382,695.5C 384.248,698.328 386.248,701.328 388,704.5C 396.008,712.779 403.675,712.446 411,703.5C 412,700.833 413,698.167 414,695.5C 414.625,689.694 415.458,684.028 416.5,678.5C 415.013,656.444 413.513,634.444 412,612.5C 415.842,611.137 419.675,610.137 423.5,609.5 Z"/></g>
<g><path style="opacity:1" fill="#eb1b3b" d="M 1407.5,721.5 C 1394.44,725.455 1381.11,728.122 1367.5,729.5C 1365.86,724.392 1362.86,720.226 1358.5,717C 1353.24,715.561 1347.9,715.228 1342.5,716C 1339.73,717.371 1337.4,719.204 1335.5,721.5C 1324.8,729.909 1320.47,740.909 1322.5,754.5C 1325.69,755.865 1329.02,756.699 1332.5,757C 1329.4,757.935 1327.07,759.769 1325.5,762.5C 1318.09,768.246 1312.09,775.246 1307.5,783.5C 1303.09,789.982 1298.42,796.315 1293.5,802.5C 1288.08,793.651 1283.74,784.318 1280.5,774.5C 1278.86,769.291 1277.86,763.958 1277.5,758.5C 1277.24,750.78 1277.74,743.113 1279,735.5C 1282.57,727.356 1286.41,719.356 1290.5,711.5C 1299.51,699.99 1310.01,689.99 1322,681.5C 1322.33,675.167 1322.67,668.833 1323,662.5C 1323.5,662 1324,661.5 1324.5,661C 1331.13,659.948 1337.79,659.448 1344.5,659.5C 1345.58,665.222 1346.91,670.888 1348.5,676.5C 1352.38,677.795 1356.21,677.795 1360,676.5C 1361.63,670.12 1363.8,663.953 1366.5,658C 1369.17,657.333 1371.83,657.333 1374.5,658C 1378.84,658.498 1382.18,660.498 1384.5,664C 1383.13,669.596 1382.13,675.263 1381.5,681C 1381.26,683.348 1382.09,685.182 1384,686.5C 1389.2,681.635 1394.03,676.468 1398.5,671C 1400.17,670.333 1401.83,670.333 1403.5,671C 1407.34,673.677 1409.67,677.344 1410.5,682C 1407.3,688.223 1403.97,694.39 1400.5,700.5C 1403.7,707.229 1406.03,714.229 1407.5,721.5 Z"/></g>
<g><path style="opacity:1" fill="#2883c4" d="M 1290.5,711.5 C 1286.41,719.356 1282.57,727.356 1279,735.5C 1277.74,743.113 1277.24,750.78 1277.5,758.5C 1276.52,754.702 1276.18,750.702 1276.5,746.5C 1261.87,745.788 1247.53,747.454 1233.5,751.5C 1236.15,741.889 1238.32,732.223 1240,722.5C 1229.67,718.333 1219.17,714.666 1208.5,711.5C 1204.82,710.44 1201.15,709.274 1197.5,708C 1196.24,707.583 1195.58,706.75 1195.5,705.5C 1195.34,702.482 1195.5,699.482 1196,696.5C 1196.48,694.522 1197.65,693.189 1199.5,692.5C 1208.76,696.566 1218.43,698.9 1228.5,699.5C 1228.51,697.692 1228.01,696.025 1227,694.5C 1221.31,688.309 1215.14,682.642 1208.5,677.5C 1206.87,670.933 1209.37,666.6 1216,664.5C 1226.67,674.007 1237.51,683.34 1248.5,692.5C 1250.1,688.657 1251.27,684.657 1252,680.5C 1252.39,679.572 1253.05,678.905 1254,678.5C 1262.86,675.419 1271.36,676.253 1279.5,681C 1283.91,683.233 1286.57,686.733 1287.5,691.5C 1285.84,697.764 1284.51,704.098 1283.5,710.5C 1285.9,710.448 1288.24,710.781 1290.5,711.5 Z"/></g>
<g><path style="opacity:1" fill="#baaca6" d="M 1208.5,711.5 C 1219.17,714.666 1229.67,718.333 1240,722.5C 1238.32,732.223 1236.15,741.889 1233.5,751.5C 1231.15,759.194 1227.49,766.194 1222.5,772.5C 1216.98,771.076 1211.65,769.076 1206.5,766.5C 1205.89,766.624 1205.56,766.957 1205.5,767.5C 1203.88,762.349 1202.55,757.016 1201.5,751.5C 1201.32,743.419 1201.98,735.419 1203.5,727.5C 1205.54,722.384 1207.2,717.051 1208.5,711.5 Z"/></g>
<g><path style="opacity:1" fill="#2982c4" d="M 1437.5,713.5 C 1438.65,718.166 1438.65,722.833 1437.5,727.5C 1427.07,731.162 1427.74,733.162 1439.5,733.5C 1439.67,738.179 1439.5,742.845 1439,747.5C 1438.8,750.797 1437.96,753.797 1436.5,756.5C 1427.17,756.5 1417.83,756.5 1408.5,756.5C 1396.98,757.939 1386.31,761.605 1376.5,767.5C 1374.57,768.11 1372.9,769.11 1371.5,770.5C 1364.25,774.41 1357.25,778.744 1350.5,783.5C 1343.04,775.372 1334.71,768.372 1325.5,762.5C 1327.07,759.769 1329.4,757.935 1332.5,757C 1329.02,756.699 1325.69,755.865 1322.5,754.5C 1320.47,740.909 1324.8,729.909 1335.5,721.5C 1345.38,726.816 1356.05,729.482 1367.5,729.5C 1381.11,728.122 1394.44,725.455 1407.5,721.5C 1417.42,718.52 1427.42,715.853 1437.5,713.5 Z"/></g>
<g><path style="opacity:1" fill="#c7b8b1" d="M 1195.5,705.5 C 1195.58,706.75 1196.24,707.583 1197.5,708C 1201.15,709.274 1204.82,710.44 1208.5,711.5C 1207.2,717.051 1205.54,722.384 1203.5,727.5C 1197.95,725.978 1192.28,725.311 1186.5,725.5C 1186.74,726.791 1186.4,727.791 1185.5,728.5C 1184.94,723.424 1182.61,722.424 1178.5,725.5C 1177.87,726.417 1177.54,727.417 1177.5,728.5C 1166.63,733.543 1159.46,741.877 1156,753.5C 1147.41,793.406 1158.25,826.906 1188.5,854C 1194.35,857.926 1200.68,860.759 1207.5,862.5C 1207.5,862.833 1207.5,863.167 1207.5,863.5C 1203.62,864.803 1199.62,865.47 1195.5,865.5C 1186.9,866.233 1178.56,864.9 1170.5,861.5C 1166.95,860.231 1163.95,858.231 1161.5,855.5C 1155.84,846.854 1150.67,837.854 1146,828.5C 1131.52,796.418 1129.86,763.751 1141,730.5C 1150.09,708.875 1166.26,698.542 1189.5,699.5C 1187.83,701.349 1186.83,703.516 1186.5,706C 1186.95,709.964 1188.95,711.131 1192.5,709.5C 1193.52,708.099 1194.52,706.765 1195.5,705.5 Z"/></g>
<g><path style="opacity:1" fill="#b8aaa6" d="M 1367.5,729.5 C 1356.05,729.482 1345.38,726.816 1335.5,721.5C 1337.4,719.204 1339.73,717.371 1342.5,716C 1347.9,715.228 1353.24,715.561 1358.5,717C 1362.86,720.226 1365.86,724.392 1367.5,729.5 Z"/></g>
<g><path style="opacity:1" fill="#c7b7b1" d="M 1492.5,818.5 C 1476.51,827.16 1464.17,839.494 1455.5,855.5C 1452.58,859.666 1449.92,863.999 1447.5,868.5C 1442.56,869.392 1437.56,869.726 1432.5,869.5C 1424.61,870.311 1417.61,868.311 1411.5,863.5C 1424.07,862.046 1435.4,857.546 1445.5,850C 1470.83,828.839 1483.33,801.672 1483,768.5C 1482.32,754.802 1476.65,743.802 1466,735.5C 1465.82,738.695 1465.32,741.695 1464.5,744.5C 1464.67,740.486 1464.5,736.486 1464,732.5C 1461.84,731.232 1459.67,731.232 1457.5,732.5C 1452.57,730.411 1447.4,730.078 1442,731.5C 1440.62,731.684 1439.79,732.351 1439.5,733.5C 1427.74,733.162 1427.07,731.162 1437.5,727.5C 1438.65,722.833 1438.65,718.166 1437.5,713.5C 1436.25,711.661 1436.25,709.828 1437.5,708C 1441.78,706.843 1446.12,706.01 1450.5,705.5C 1451.36,708.911 1452.53,712.244 1454,715.5C 1456.27,716.935 1458.27,716.602 1460,714.5C 1460.3,711.493 1460.13,708.493 1459.5,705.5C 1479.79,708.615 1493.29,719.948 1500,739.5C 1506.64,766.692 1503.81,792.859 1491.5,818C 1491.73,818.399 1492.06,818.565 1492.5,818.5 Z"/></g>
<g><path style="opacity:1" fill="#a79a96" d="M 1185.5,728.5 C 1184.6,733.812 1183.77,739.145 1183,744.5C 1178.52,747.75 1176.02,746.583 1175.5,741C 1176.23,736.833 1176.9,732.667 1177.5,728.5C 1177.54,727.417 1177.87,726.417 1178.5,725.5C 1182.61,722.424 1184.94,723.424 1185.5,728.5 Z"/></g>
<g><path style="opacity:1" fill="#a89a96" d="M 1464.5,744.5 C 1464.79,747.649 1464.29,750.649 1463,753.5C 1460.73,754.935 1458.73,754.602 1457,752.5C 1456.21,745.753 1456.37,739.086 1457.5,732.5C 1459.67,731.232 1461.84,731.232 1464,732.5C 1464.5,736.486 1464.67,740.486 1464.5,744.5 Z"/></g>
<g><path style="opacity:1" fill="#cfbfb8" d="M 1203.5,727.5 C 1201.98,735.419 1201.32,743.419 1201.5,751.5C 1191.83,748.22 1183.66,750.554 1177,758.5C 1164.88,787.157 1170.38,811.99 1193.5,833C 1202.2,839.085 1211.2,839.918 1220.5,835.5C 1222.91,837.051 1225.58,837.717 1228.5,837.5C 1226.4,850.083 1219.4,858.416 1207.5,862.5C 1200.68,860.759 1194.35,857.926 1188.5,854C 1158.25,826.906 1147.41,793.406 1156,753.5C 1159.46,741.877 1166.63,733.543 1177.5,728.5C 1176.9,732.667 1176.23,736.833 1175.5,741C 1176.02,746.583 1178.52,747.75 1183,744.5C 1183.77,739.145 1184.6,733.812 1185.5,728.5C 1186.4,727.791 1186.74,726.791 1186.5,725.5C 1192.28,725.311 1197.95,725.978 1203.5,727.5 Z"/></g>
<g><path style="opacity:0.973" fill="#eb1a3a" d="M 934.5,746.5 C 936.766,746.141 938.599,746.808 940,748.5C 944.61,763.889 949.11,779.222 953.5,794.5C 953.167,795.167 952.833,795.833 952.5,796.5C 957.804,818.05 962.637,839.717 967,861.5C 968.188,867.778 968.688,874.112 968.5,880.5C 958.137,882.709 947.637,884.376 937,885.5C 936.667,885.167 936.333,884.833 936,884.5C 933.094,870.25 930.761,855.917 929,841.5C 928.477,839.777 927.477,838.444 926,837.5C 918.17,839.444 910.503,841.778 903,844.5C 901.116,859.446 899.949,874.446 899.5,889.5C 888.644,891.099 877.81,891.433 867,890.5C 868.022,857.614 871.189,824.781 876.5,792C 875.864,787.867 876.531,783.867 878.5,780C 877.941,779.275 877.608,778.442 877.5,777.5C 878.731,771.18 879.897,764.846 881,758.5C 881.465,757.069 882.299,755.903 883.5,755C 900.332,750.337 917.332,747.503 934.5,746.5 Z M 916.5,776.5 C 917.933,779.282 919.1,782.282 920,785.5C 921.503,792.487 922.503,799.487 923,806.5C 917.089,807.794 911.256,809.461 905.5,811.5C 904.28,811.113 903.613,810.28 903.5,809C 904.635,799.118 906.135,789.284 908,779.5C 910.804,778.132 913.638,777.132 916.5,776.5 Z"/></g>
<g><path style="opacity:1" fill="#d1c0b9" d="M 1457.5,732.5 C 1456.37,739.086 1456.21,745.753 1457,752.5C 1458.73,754.602 1460.73,754.935 1463,753.5C 1464.29,750.649 1464.79,747.649 1464.5,744.5C 1465.32,741.695 1465.82,738.695 1466,735.5C 1476.65,743.802 1482.32,754.802 1483,768.5C 1483.33,801.672 1470.83,828.839 1445.5,850C 1435.4,857.546 1424.07,862.046 1411.5,863.5C 1402.69,858.689 1397.35,851.356 1395.5,841.5C 1395.5,839.5 1395.5,837.5 1395.5,835.5C 1400.42,834.915 1405.09,833.415 1409.5,831C 1411.35,827.253 1410.18,825.086 1406,824.5C 1402.86,825.603 1399.69,826.603 1396.5,827.5C 1397.83,820.857 1400.5,814.857 1404.5,809.5C 1408.56,827.81 1418.89,832.31 1435.5,823C 1445.68,814.644 1452.01,803.977 1454.5,791C 1454.47,789.93 1454.14,789.097 1453.5,788.5C 1456.66,782.859 1458.49,776.859 1459,770.5C 1454.78,767.433 1451.94,768.433 1450.5,773.5C 1449.34,770.178 1447.01,768.012 1443.5,767C 1439.85,766.501 1436.18,766.335 1432.5,766.5C 1434.38,763.397 1435.72,760.063 1436.5,756.5C 1437.96,753.797 1438.8,750.797 1439,747.5C 1439.5,742.845 1439.67,738.179 1439.5,733.5C 1439.79,732.351 1440.62,731.684 1442,731.5C 1447.4,730.078 1452.57,730.411 1457.5,732.5 Z"/></g>
<g><path style="opacity:1" fill="#d9c7bf" d="M 1201.5,751.5 C 1202.55,757.016 1203.88,762.349 1205.5,767.5C 1207.56,774.375 1210.56,780.708 1214.5,786.5C 1214.23,788.099 1214.57,789.432 1215.5,790.5C 1219.21,799.235 1222.87,807.901 1226.5,816.5C 1227.55,821.107 1228.22,825.773 1228.5,830.5C 1225.7,829.265 1223.03,827.765 1220.5,826C 1216,825.167 1214.17,827 1215,831.5C 1216.81,832.977 1218.65,834.31 1220.5,835.5C 1211.2,839.918 1202.2,839.085 1193.5,833C 1170.38,811.99 1164.88,787.157 1177,758.5C 1183.66,750.554 1191.83,748.22 1201.5,751.5 Z"/></g>
<g><path style="opacity:1" fill="#bbaba6" d="M 1408.5,756.5 C 1417.83,756.5 1427.17,756.5 1436.5,756.5C 1435.72,760.063 1434.38,763.397 1432.5,766.5C 1428.65,773.544 1424.32,780.211 1419.5,786.5C 1419.44,785.957 1419.11,785.624 1418.5,785.5C 1412.74,789.639 1406.74,790.306 1400.5,787.5C 1404.08,777.365 1406.74,767.032 1408.5,756.5 Z"/></g>
<g><path style="opacity:0.999" fill="#eb1b3b" d="M 1408.5,756.5 C 1406.74,767.032 1404.08,777.365 1400.5,787.5C 1406.74,790.306 1412.74,789.639 1418.5,785.5C 1419.11,785.624 1419.44,785.957 1419.5,786.5C 1414.11,793.897 1409.11,801.563 1404.5,809.5C 1400.5,814.857 1397.83,820.857 1396.5,827.5C 1395.88,827.611 1395.38,827.944 1395,828.5C 1394.19,833.02 1394.35,837.354 1395.5,841.5C 1397.35,851.356 1402.69,858.689 1411.5,863.5C 1417.61,868.311 1424.61,870.311 1432.5,869.5C 1432.2,908.572 1426.87,946.905 1416.5,984.5C 1412.82,994.182 1407.15,1002.51 1399.5,1009.5C 1377.67,985.686 1357.01,961.019 1337.5,935.5C 1333.74,930.415 1330.41,925.082 1327.5,919.5C 1337.33,911.523 1341.83,901.19 1341,888.5C 1333.89,884.03 1326.72,879.696 1319.5,875.5C 1318.49,874.326 1317.15,873.66 1315.5,873.5C 1320.18,863.979 1325.51,854.812 1331.5,846C 1328.01,840.35 1323.68,835.517 1318.5,831.5C 1318.5,831.167 1318.5,830.833 1318.5,830.5C 1321.74,820.694 1326.07,811.361 1331.5,802.5C 1337.5,795.833 1343.83,789.5 1350.5,783.5C 1357.25,778.744 1364.25,774.41 1371.5,770.5C 1375.5,774.799 1377.16,773.799 1376.5,767.5C 1386.31,761.605 1396.98,757.939 1408.5,756.5 Z"/></g>
<g><path style="opacity:1" fill="#348cca" d="M 1277.5,758.5 C 1277.86,763.958 1278.86,769.291 1280.5,774.5C 1256.58,770.897 1234.91,776.23 1215.5,790.5C 1214.57,789.432 1214.23,788.099 1214.5,786.5C 1217.59,782.074 1220.26,777.407 1222.5,772.5C 1227.49,766.194 1231.15,759.194 1233.5,751.5C 1247.53,747.454 1261.87,745.788 1276.5,746.5C 1276.18,750.702 1276.52,754.702 1277.5,758.5 Z"/></g>
<g><path style="opacity:1" fill="#a89b97" d="M 1178.5,761.5 C 1180.72,761.178 1182.56,761.845 1184,763.5C 1184.85,769.233 1186.01,774.9 1187.5,780.5C 1184.83,785.806 1182,785.806 1179,780.5C 1177.85,776.228 1177.01,771.894 1176.5,767.5C 1176.36,765.159 1177.03,763.159 1178.5,761.5 Z"/></g>
<g><path style="opacity:0.965" fill="#eb1a3a" d="M 801.5,763.5 C 807.509,763.334 813.509,763.501 819.5,764C 825.623,766.815 831.623,769.815 837.5,773C 840.07,775.067 842.07,777.567 843.5,780.5C 842.667,782.167 841.833,783.833 841,785.5C 835.738,790.217 830.571,795.051 825.5,800C 823.635,801.301 821.635,801.635 819.5,801C 810.533,790.245 801.033,789.745 791,799.5C 789.275,802.674 787.942,806.007 787,809.5C 785.157,825.948 787.823,841.615 795,856.5C 800.566,865.866 808.733,869.7 819.5,868C 826.02,863.305 832.02,858.138 837.5,852.5C 840.527,853.361 843.194,854.861 845.5,857C 850.327,860.827 854.827,864.994 859,869.5C 859.706,871.971 859.373,874.305 858,876.5C 840.69,899.371 818.523,905.871 791.5,896C 772.972,886.806 761.806,871.973 758,851.5C 752.879,831.579 753.546,811.912 760,792.5C 765.229,780.272 774.062,771.772 786.5,767C 791.646,765.875 796.646,764.709 801.5,763.5 Z"/></g>
<g><path style="opacity:1" fill="#ea223f" d="M 1222.5,772.5 C 1220.26,777.407 1217.59,782.074 1214.5,786.5C 1210.56,780.708 1207.56,774.375 1205.5,767.5C 1205.56,766.957 1205.89,766.624 1206.5,766.5C 1211.65,769.076 1216.98,771.076 1222.5,772.5 Z"/></g>
<g><path style="opacity:1" fill="#bd9c9c" d="M 1376.5,767.5 C 1377.16,773.799 1375.5,774.799 1371.5,770.5C 1372.9,769.11 1374.57,768.11 1376.5,767.5 Z"/></g>
<g><path style="opacity:1" fill="#a89a96" d="M 1453.5,788.5 C 1451.99,790.441 1449.99,790.941 1447.5,790C 1446.43,789.261 1445.76,788.261 1445.5,787C 1447.88,782.741 1449.55,778.241 1450.5,773.5C 1451.94,768.433 1454.78,767.433 1459,770.5C 1458.49,776.859 1456.66,782.859 1453.5,788.5 Z"/></g>
<g><path style="opacity:1" fill="#ddcac2" d="M 1432.5,766.5 C 1436.18,766.335 1439.85,766.501 1443.5,767C 1447.01,768.012 1449.34,770.178 1450.5,773.5C 1449.55,778.241 1447.88,782.741 1445.5,787C 1445.76,788.261 1446.43,789.261 1447.5,790C 1449.99,790.941 1451.99,790.441 1453.5,788.5C 1454.14,789.097 1454.47,789.93 1454.5,791C 1452.01,803.977 1445.68,814.644 1435.5,823C 1418.89,832.31 1408.56,827.81 1404.5,809.5C 1409.11,801.563 1414.11,793.897 1419.5,786.5C 1424.32,780.211 1428.65,773.544 1432.5,766.5 Z"/></g>
<g><path style="opacity:1" fill="#368bc9" d="M 1325.5,762.5 C 1334.71,768.372 1343.04,775.372 1350.5,783.5C 1343.83,789.5 1337.5,795.833 1331.5,802.5C 1324.68,794.674 1316.68,788.341 1307.5,783.5C 1312.09,775.246 1318.09,768.246 1325.5,762.5 Z"/></g>
<g><path style="opacity:0.967" fill="#eb1a3a" d="M 687.5,775.5 C 696.142,776.138 704.809,776.304 713.5,776C 723.845,778.024 731.678,783.524 737,792.5C 740.883,804.11 741.217,815.777 738,827.5C 735.664,832.175 732.831,836.508 729.5,840.5C 738.495,859.142 747.495,877.808 756.5,896.5C 756.081,897.672 755.415,898.672 754.5,899.5C 750.579,900.86 746.912,902.694 743.5,905C 738.968,906.458 734.468,906.958 730,906.5C 722.521,888.214 714.521,870.214 706,852.5C 705.261,851.426 704.261,850.759 703,850.5C 700.144,851.256 697.311,852.089 694.5,853C 693.484,853.519 692.818,854.353 692.5,855.5C 698.096,874.165 701.596,893.165 703,912.5C 694.915,916.249 686.415,917.416 677.5,916C 675.333,915.167 673.833,913.667 673,911.5C 664.994,870.53 658.161,829.53 652.5,788.5C 652.59,786.036 653.257,783.87 654.5,782C 664.678,779.461 675.011,777.794 685.5,777C 686.416,776.722 687.082,776.222 687.5,775.5 Z M 697.5,798.5 C 709.115,796.352 714.615,801.019 714,812.5C 708.599,820.289 701.099,824.623 691.5,825.5C 689.312,825.693 687.645,824.859 686.5,823C 687.28,821.927 687.113,820.76 686,819.5C 684.73,813.215 683.897,806.882 683.5,800.5C 688.391,800.468 693.057,799.801 697.5,798.5 Z"/></g>
<g><path style="opacity:0.97" fill="#eb1a3a" d="M 634.5,782.5 C 637.645,783.077 639.145,785.077 639,788.5C 639.831,795.192 639.664,801.858 638.5,808.5C 630.426,811.22 622.093,812.72 613.5,813C 609.89,814.203 606.224,815.203 602.5,816C 601.248,818.041 600.581,820.375 600.5,823C 600.307,826.243 600.973,829.243 602.5,832C 608.999,832.319 615.499,832.152 622,831.5C 626.637,831.369 631.137,832.036 635.5,833.5C 637.439,835.122 637.772,836.956 636.5,839C 638.291,845.33 638.957,851.83 638.5,858.5C 627.615,858.864 616.949,860.531 606.5,863.5C 605.808,864.025 605.308,864.692 605,865.5C 604.333,871.5 604.333,877.5 605,883.5C 605.18,886.679 606.846,888.012 610,887.5C 622.846,886.353 635.679,885.52 648.5,885C 649.852,887.294 650.519,889.794 650.5,892.5C 650.561,901.212 650.061,909.879 649,918.5C 646.14,920.422 643.473,920.422 641,918.5C 620.801,921.028 600.635,922.528 580.5,923C 579.283,921.352 578.45,919.519 578,917.5C 572.876,879.021 568.71,840.521 565.5,802C 565.99,800.018 566.99,798.351 568.5,797C 570.976,796.576 573.309,795.743 575.5,794.5C 586.738,791.357 598.071,788.524 609.5,786C 618.003,785.004 626.336,783.837 634.5,782.5 Z"/></g>
<g><path style="opacity:1" fill="#4194cf" d="M 1280.5,774.5 C 1283.74,784.318 1288.08,793.651 1293.5,802.5C 1298.42,796.315 1303.09,789.982 1307.5,783.5C 1316.68,788.341 1324.68,794.674 1331.5,802.5C 1326.07,811.361 1321.74,820.694 1318.5,830.5C 1302.23,805.011 1279.23,795.845 1249.5,803C 1240.85,805.985 1233.18,810.485 1226.5,816.5C 1222.87,807.901 1219.21,799.235 1215.5,790.5C 1234.91,776.23 1256.58,770.897 1280.5,774.5 Z"/></g>
<g><path style="opacity:0.963" fill="#eb1a3a" d="M 500.5,796.5 C 514.565,796.677 527.231,800.844 538.5,809C 540.01,810.351 541.01,812.018 541.5,814C 540.162,819.178 537.662,823.678 534,827.5C 532.155,830.183 529.655,831.85 526.5,832.5C 521.393,830.78 516.726,828.28 512.5,825C 503.263,820.351 495.763,822.184 490,830.5C 489.005,838.001 492.172,842.835 499.5,845C 514.899,848.355 529.565,853.688 543.5,861C 550.627,865.45 555.461,871.617 558,879.5C 564.099,904.792 555.599,922.959 532.5,934C 521.866,935.664 511.2,936.664 500.5,937C 486.383,935.865 475.217,929.698 467,918.5C 466.416,915.743 466.75,913.077 468,910.5C 472.145,906.685 475.978,902.519 479.5,898C 481.167,897.333 482.833,897.333 484.5,898C 496.215,909.967 509.882,912.967 525.5,907C 532.691,899.842 533.025,892.509 526.5,885C 522.993,882.746 519.327,880.746 515.5,879C 501.33,875.89 487.996,870.723 475.5,863.5C 463.104,853.494 458.27,840.494 461,824.5C 463.922,814.576 470.088,807.409 479.5,803C 486.402,800.085 493.402,797.919 500.5,796.5 Z"/></g>
<g><path style="opacity:1" fill="#a89b96" d="M 1190.5,797.5 C 1191.87,797.343 1193.21,797.51 1194.5,798C 1197.62,802.786 1201.12,807.286 1205,811.5C 1206.26,817.08 1204.09,818.913 1198.5,817C 1194.96,812.763 1191.8,808.263 1189,803.5C 1188.25,801.16 1188.75,799.16 1190.5,797.5 Z"/></g>
<g><path style="opacity:1" fill="#a79a96" d="M 1435.5,801.5 C 1439.98,801.822 1441.48,804.156 1440,808.5C 1436.13,812.702 1431.97,816.535 1427.5,820C 1426.1,820.595 1424.77,820.428 1423.5,819.5C 1422.36,817.579 1422.19,815.579 1423,813.5C 1427.67,809.997 1431.84,805.997 1435.5,801.5 Z"/></g>
<g><path style="opacity:1" fill="#a79a96" d="M 1078.5,820.5 C 1074.35,820.166 1072.69,817.833 1073.5,813.5C 1081.09,812.853 1088.25,814.52 1095,818.5C 1096.14,821.901 1094.97,823.901 1091.5,824.5C 1087.11,823.319 1082.77,821.986 1078.5,820.5 Z"/></g>
<g><path style="opacity:0.999" fill="#e1cfc6" d="M 1540.5,814.5 C 1543.07,823.328 1544.73,832.328 1545.5,841.5C 1532.33,844.174 1526.83,852.174 1529,865.5C 1531.06,873.06 1535.89,877.727 1543.5,879.5C 1541.36,887.24 1539.03,894.906 1536.5,902.5C 1506.64,888.233 1482.64,894.9 1464.5,922.5C 1452.95,915.62 1444.62,905.953 1439.5,893.5C 1441.36,884.905 1444.03,876.572 1447.5,868.5C 1449.92,863.999 1452.58,859.666 1455.5,855.5C 1454.49,871.983 1461.15,884.149 1475.5,892C 1491.51,894.32 1502.51,887.82 1508.5,872.5C 1517.6,867.061 1520.77,859.061 1518,848.5C 1516.39,844.725 1513.89,841.725 1510.5,839.5C 1508.88,832.382 1505.71,826.049 1501,820.5C 1499.21,818.771 1497.04,818.104 1494.5,818.5C 1498.27,816.461 1502.27,814.795 1506.5,813.5C 1518.05,810.615 1529.38,810.949 1540.5,814.5 Z"/></g>
<g><path style="opacity:1" fill="#4e9dd5" d="M 1318.5,830.5 C 1318.5,830.833 1318.5,831.167 1318.5,831.5C 1311.37,827.141 1303.7,825.474 1295.5,826.5C 1290.74,835.027 1285.74,843.36 1280.5,851.5C 1279.17,850.833 1277.83,850.167 1276.5,849.5C 1268.99,844.909 1261.32,840.576 1253.5,836.5C 1239.83,843.675 1233,855.008 1233,870.5C 1240.05,875.059 1247.22,879.392 1254.5,883.5C 1255.9,884.89 1257.57,885.89 1259.5,886.5C 1254.65,895.537 1249.32,904.204 1243.5,912.5C 1222.99,902.339 1210.99,886.006 1207.5,863.5C 1207.5,863.167 1207.5,862.833 1207.5,862.5C 1219.4,858.416 1226.4,850.083 1228.5,837.5C 1231.14,835.122 1231.14,832.788 1228.5,830.5C 1228.22,825.773 1227.55,821.107 1226.5,816.5C 1233.18,810.485 1240.85,805.985 1249.5,803C 1279.23,795.845 1302.23,805.011 1318.5,830.5 Z"/></g>
<g><path style="opacity:1" fill="#dfcdc4" d="M 1064.5,812.5 C 1067.71,812.19 1070.71,812.523 1073.5,813.5C 1072.69,817.833 1074.35,820.166 1078.5,820.5C 1080.52,824.906 1081.52,829.572 1081.5,834.5C 1073.7,837.556 1069.7,843.389 1069.5,852C 1069.73,854.528 1070.06,857.028 1070.5,859.5C 1067.26,860.738 1064.26,862.404 1061.5,864.5C 1063.25,855.212 1060.25,848.045 1052.5,843C 1048.55,842.088 1044.88,842.755 1041.5,845C 1038.56,848.716 1036.56,852.883 1035.5,857.5C 1027.86,854.522 1022.52,849.189 1019.5,841.5C 1029.44,824.274 1044.44,814.608 1064.5,812.5 Z"/></g>
<g><path style="opacity:0.993" fill="#cabab3" d="M 1540.5,814.5 C 1548.94,816.314 1556.94,819.314 1564.5,823.5C 1567.45,844.064 1567.11,864.564 1563.5,885C 1563.84,886.03 1564.5,886.53 1565.5,886.5C 1562.44,891.874 1561.77,897.541 1563.5,903.5C 1560.6,909.65 1557.93,915.984 1555.5,922.5C 1550.54,914.544 1544.21,907.877 1536.5,902.5C 1539.03,894.906 1541.36,887.24 1543.5,879.5C 1559.46,878.706 1566.63,870.372 1565,854.5C 1561.3,845.961 1554.8,841.628 1545.5,841.5C 1544.73,832.328 1543.07,823.328 1540.5,814.5 Z"/></g>
<g><path style="opacity:1" fill="#aa9a96" d="M 1395.5,841.5 C 1394.35,837.354 1394.19,833.02 1395,828.5C 1395.38,827.944 1395.88,827.611 1396.5,827.5C 1399.69,826.603 1402.86,825.603 1406,824.5C 1410.18,825.086 1411.35,827.253 1409.5,831C 1405.09,833.415 1400.42,834.915 1395.5,835.5C 1395.5,837.5 1395.5,839.5 1395.5,841.5 Z"/></g>
<g><path style="opacity:1" fill="#a69a96" d="M 1228.5,830.5 C 1231.14,832.788 1231.14,835.122 1228.5,837.5C 1225.58,837.717 1222.91,837.051 1220.5,835.5C 1218.65,834.31 1216.81,832.977 1215,831.5C 1214.17,827 1216,825.167 1220.5,826C 1223.03,827.765 1225.7,829.265 1228.5,830.5 Z"/></g>
<g><path style="opacity:1" fill="#f9bca7" d="M 1318.5,831.5 C 1323.68,835.517 1328.01,840.35 1331.5,846C 1325.51,854.812 1320.18,863.979 1315.5,873.5C 1308.2,885.144 1300.87,896.811 1293.5,908.5C 1288.68,916.806 1283.85,925.139 1279,933.5C 1262.7,934.097 1250.86,927.097 1243.5,912.5C 1249.32,904.204 1254.65,895.537 1259.5,886.5C 1266.75,874.999 1273.75,863.332 1280.5,851.5C 1285.74,843.36 1290.74,835.027 1295.5,826.5C 1303.7,825.474 1311.37,827.141 1318.5,831.5 Z"/></g>
<g><path style="opacity:1" fill="#d4c3bb" d="M 1145.5,849.5 C 1145.42,858.415 1142.42,866.082 1136.5,872.5C 1135.44,869.489 1134.27,866.489 1133,863.5C 1131.06,862.193 1129.22,862.193 1127.5,863.5C 1124.11,859.388 1121.78,854.721 1120.5,849.5C 1123.47,849.035 1124.64,847.368 1124,844.5C 1120.88,839.714 1117.38,835.214 1113.5,831C 1111.5,830.333 1109.5,830.333 1107.5,831C 1106.92,831.893 1106.59,832.893 1106.5,834C 1107.55,836.886 1109.21,839.386 1111.5,841.5C 1108.92,859.91 1100.25,874.743 1085.5,886C 1086.42,886.278 1087.08,886.778 1087.5,887.5C 1081.74,887.149 1076.07,887.649 1070.5,889C 1061.98,893.691 1055.31,900.191 1050.5,908.5C 1046.83,908.5 1043.17,908.5 1039.5,908.5C 1043.62,899.785 1043.45,891.118 1039,882.5C 1032.76,875.869 1026.59,875.869 1020.5,882.5C 1016.38,879.266 1012.04,876.266 1007.5,873.5C 1009.36,861.905 1013.36,851.238 1019.5,841.5C 1022.52,849.189 1027.86,854.522 1035.5,857.5C 1034.84,866.008 1037.84,872.842 1044.5,878C 1055,879.671 1060.67,875.171 1061.5,864.5C 1064.26,862.404 1067.26,860.738 1070.5,859.5C 1074.07,870.707 1080.91,873.374 1091,867.5C 1095.17,860.755 1096.5,853.421 1095,845.5C 1092.98,838.638 1088.48,834.971 1081.5,834.5C 1081.52,829.572 1080.52,824.906 1078.5,820.5C 1082.77,821.986 1087.11,823.319 1091.5,824.5C 1094.97,823.901 1096.14,821.901 1095,818.5C 1088.25,814.52 1081.09,812.853 1073.5,813.5C 1070.71,812.523 1067.71,812.19 1064.5,812.5C 1095.7,808.337 1121.53,818.337 1142,842.5C 1143.7,844.577 1144.87,846.91 1145.5,849.5 Z"/></g>
<g><path style="opacity:1" fill="#a89b96" d="M 1120.5,849.5 C 1119.45,849.649 1118.45,849.483 1117.5,849C 1115.84,846.156 1113.84,843.656 1111.5,841.5C 1109.21,839.386 1107.55,836.886 1106.5,834C 1106.59,832.893 1106.92,831.893 1107.5,831C 1109.5,830.333 1111.5,830.333 1113.5,831C 1117.38,835.214 1120.88,839.714 1124,844.5C 1124.64,847.368 1123.47,849.035 1120.5,849.5 Z"/></g>
<g><path style="opacity:0.98" fill="#bcada7" d="M 1564.5,823.5 C 1589.5,838.023 1604,859.69 1608,888.5C 1611.64,924.648 1601.97,956.648 1579,984.5C 1554.36,1011.82 1523.86,1021.99 1487.5,1015C 1461.37,1010.26 1437.7,1000.09 1416.5,984.5C 1426.87,946.905 1432.2,908.572 1432.5,869.5C 1437.56,869.726 1442.56,869.392 1447.5,868.5C 1444.03,876.572 1441.36,884.905 1439.5,893.5C 1435.79,904.766 1434.62,916.433 1436,928.5C 1442.36,936.579 1450.2,942.579 1459.5,946.5C 1461.11,971.949 1474.11,988.449 1498.5,996C 1530.59,999.884 1551.09,986.384 1560,955.5C 1561.65,944.006 1560.15,933.006 1555.5,922.5C 1557.93,915.984 1560.6,909.65 1563.5,903.5C 1569.56,915.757 1578.89,918.923 1591.5,913C 1599.06,907.257 1601.56,899.757 1599,890.5C 1592.5,878.556 1583,875.39 1570.5,881C 1568.63,882.704 1566.96,884.537 1565.5,886.5C 1564.5,886.53 1563.84,886.03 1563.5,885C 1567.11,864.564 1567.45,844.064 1564.5,823.5 Z"/></g>
<g><path style="opacity:1" fill="#fce9dd" d="M 1081.5,834.5 C 1088.48,834.971 1092.98,838.638 1095,845.5C 1096.5,853.421 1095.17,860.755 1091,867.5C 1080.91,873.374 1074.07,870.707 1070.5,859.5C 1070.06,857.028 1069.73,854.528 1069.5,852C 1069.7,843.389 1073.7,837.556 1081.5,834.5 Z"/></g>
<g><path style="opacity:1" fill="#f8bca7" d="M 1276.5,849.5 C 1269.83,860.352 1263.33,871.352 1257,882.5C 1256.33,883.252 1255.5,883.586 1254.5,883.5C 1247.22,879.392 1240.05,875.059 1233,870.5C 1233,855.008 1239.83,843.675 1253.5,836.5C 1261.32,840.576 1268.99,844.909 1276.5,849.5 Z"/></g>
<g><path style="opacity:1" fill="#fce9dd" d="M 1510.5,839.5 C 1513.89,841.725 1516.39,844.725 1518,848.5C 1520.77,859.061 1517.6,867.061 1508.5,872.5C 1492.74,876.779 1483.74,870.779 1481.5,854.5C 1482.62,843.568 1488.62,837.568 1499.5,836.5C 1503.54,836.425 1507.21,837.425 1510.5,839.5 Z"/></g>
<g><path style="opacity:1" fill="#ead6cd" d="M 1492.5,818.5 C 1493.17,818.5 1493.83,818.5 1494.5,818.5C 1497.04,818.104 1499.21,818.771 1501,820.5C 1505.71,826.049 1508.88,832.382 1510.5,839.5C 1507.21,837.425 1503.54,836.425 1499.5,836.5C 1488.62,837.568 1482.62,843.568 1481.5,854.5C 1483.74,870.779 1492.74,876.779 1508.5,872.5C 1502.51,887.82 1491.51,894.32 1475.5,892C 1461.15,884.149 1454.49,871.983 1455.5,855.5C 1464.17,839.494 1476.51,827.16 1492.5,818.5 Z"/></g>
<g><path style="opacity:1" fill="#fce9dd" d="M 1545.5,841.5 C 1554.8,841.628 1561.3,845.961 1565,854.5C 1566.63,870.372 1559.46,878.706 1543.5,879.5C 1535.89,877.727 1531.06,873.06 1529,865.5C 1526.83,852.174 1532.33,844.174 1545.5,841.5 Z"/></g>
<g><path style="opacity:1" fill="#fce9dd" d="M 1061.5,864.5 C 1060.67,875.171 1055,879.671 1044.5,878C 1037.84,872.842 1034.84,866.008 1035.5,857.5C 1036.56,852.883 1038.56,848.716 1041.5,845C 1044.88,842.755 1048.55,842.088 1052.5,843C 1060.25,848.045 1063.25,855.212 1061.5,864.5 Z"/></g>
<g><path style="opacity:1" fill="#bc9182" d="M 1276.5,849.5 C 1277.83,850.167 1279.17,850.833 1280.5,851.5C 1273.75,863.332 1266.75,874.999 1259.5,886.5C 1257.57,885.89 1255.9,884.89 1254.5,883.5C 1255.5,883.586 1256.33,883.252 1257,882.5C 1263.33,871.352 1269.83,860.352 1276.5,849.5 Z"/></g>
<g><path style="opacity:1" fill="#fbdbcd" d="M 1281.5,858.5 C 1291.18,863.039 1300.18,868.539 1308.5,875C 1303.3,883.9 1297.97,892.733 1292.5,901.5C 1283.5,896 1274.5,890.5 1265.5,885C 1270.72,876.056 1276.05,867.223 1281.5,858.5 Z"/></g>
<g><path style="opacity:1" fill="#bc9082" d="M 1315.5,873.5 C 1317.15,873.66 1318.49,874.326 1319.5,875.5C 1312.01,886.462 1305.01,897.796 1298.5,909.5C 1296.88,908.962 1295.22,908.629 1293.5,908.5C 1300.87,896.811 1308.2,885.144 1315.5,873.5 Z"/></g>
<g><path style="opacity:1" fill="#f9bca6" d="M 1319.5,875.5 C 1326.72,879.696 1333.89,884.03 1341,888.5C 1341.83,901.19 1337.33,911.523 1327.5,919.5C 1326.13,920.512 1324.8,921.512 1323.5,922.5C 1321.07,923.329 1318.73,922.829 1316.5,921C 1310.27,917.392 1304.27,913.559 1298.5,909.5C 1305.01,897.796 1312.01,886.462 1319.5,875.5 Z"/></g>
<g><path style="opacity:1" fill="#fbe9dd" d="M 1039.5,908.5 C 1033.13,916.473 1026.63,916.473 1020,908.5C 1015.24,899.717 1015.41,891.05 1020.5,882.5C 1026.59,875.869 1032.76,875.869 1039,882.5C 1043.45,891.118 1043.62,899.785 1039.5,908.5 Z"/></g>
<g><path style="opacity:1" fill="#fce9dd" d="M 1563.5,903.5 C 1561.77,897.541 1562.44,891.874 1565.5,886.5C 1566.96,884.537 1568.63,882.704 1570.5,881C 1583,875.39 1592.5,878.556 1599,890.5C 1601.56,899.757 1599.06,907.257 1591.5,913C 1578.89,918.923 1569.56,915.757 1563.5,903.5 Z"/></g>
<g><path style="opacity:1" fill="#c0b1ab" d="M 1141.5,905.5 C 1142.22,905.918 1142.72,906.584 1143,907.5C 1153.41,901.26 1161.57,892.927 1167.5,882.5C 1169.17,882.5 1170.83,882.5 1172.5,882.5C 1179.89,881.04 1187.22,881.206 1194.5,883C 1183.91,908.761 1165.57,926.594 1139.5,936.5C 1138.17,932.167 1138.17,927.833 1139.5,923.5C 1142.01,921.728 1143.01,919.228 1142.5,916C 1142.2,912.489 1141.86,908.989 1141.5,905.5 Z"/></g>
<g><path style="opacity:1" fill="#c7b7b0" d="M 1111.5,841.5 C 1113.84,843.656 1115.84,846.156 1117.5,849C 1118.45,849.483 1119.45,849.649 1120.5,849.5C 1121.78,854.721 1124.11,859.388 1127.5,863.5C 1126.98,864.577 1126.65,865.744 1126.5,867C 1127.94,872.93 1129.61,878.763 1131.5,884.5C 1133.64,885.953 1135.48,885.62 1137,883.5C 1137.45,879.812 1137.28,876.146 1136.5,872.5C 1142.42,866.082 1145.42,858.415 1145.5,849.5C 1150.73,856.952 1155.23,864.952 1159,873.5C 1161.36,877.027 1164.2,880.027 1167.5,882.5C 1161.57,892.927 1153.41,901.26 1143,907.5C 1142.72,906.584 1142.22,905.918 1141.5,905.5C 1141.16,901.195 1138.82,899.695 1134.5,901C 1133.7,905.08 1133.2,909.247 1133,913.5C 1128.93,918.079 1124.43,922.079 1119.5,925.5C 1116.7,912.746 1110.36,901.913 1100.5,893C 1096.54,890.292 1092.21,888.459 1087.5,887.5C 1087.08,886.778 1086.42,886.278 1085.5,886C 1100.25,874.743 1108.92,859.91 1111.5,841.5 Z"/></g>
<g><path style="opacity:1" fill="#a79a96" d="M 1136.5,872.5 C 1137.28,876.146 1137.45,879.812 1137,883.5C 1135.48,885.62 1133.64,885.953 1131.5,884.5C 1129.61,878.763 1127.94,872.93 1126.5,867C 1126.65,865.744 1126.98,864.577 1127.5,863.5C 1129.22,862.193 1131.06,862.193 1133,863.5C 1134.27,866.489 1135.44,869.489 1136.5,872.5 Z"/></g>
<g><path style="opacity:0.984" fill="#b9aba5" d="M 1170.5,861.5 C 1178.56,864.9 1186.9,866.233 1195.5,865.5C 1194.79,866.404 1193.79,866.737 1192.5,866.5C 1197.5,890.475 1206.83,912.475 1220.5,932.5C 1228.13,944.757 1237.79,955.091 1249.5,963.5C 1253.92,967.223 1258.59,970.723 1263.5,974C 1273.4,979.782 1283.4,985.282 1293.5,990.5C 1264.44,988.908 1237.77,980.241 1213.5,964.5C 1178.04,995.489 1136.71,1011.66 1089.5,1013C 1066.25,1011.96 1047.75,1002.13 1034,983.5C 1022.35,967.86 1014.18,950.526 1009.5,931.5C 1020.44,935.635 1031.77,937.635 1043.5,937.5C 1042.78,956.838 1049.11,973.338 1062.5,987C 1080.17,998.844 1095.67,996.344 1109,979.5C 1119.48,962.898 1122.98,944.898 1119.5,925.5C 1124.43,922.079 1128.93,918.079 1133,913.5C 1133.2,909.247 1133.7,905.08 1134.5,901C 1138.82,899.695 1141.16,901.195 1141.5,905.5C 1141.86,908.989 1142.2,912.489 1142.5,916C 1143.01,919.228 1142.01,921.728 1139.5,923.5C 1138.17,927.833 1138.17,932.167 1139.5,936.5C 1165.57,926.594 1183.91,908.761 1194.5,883C 1187.22,881.206 1179.89,881.04 1172.5,882.5C 1171.69,875.516 1171.02,868.516 1170.5,861.5 Z"/></g>
<g><path style="opacity:1" fill="#fce9dd" d="M 1087.5,887.5 C 1092.21,888.459 1096.54,890.292 1100.5,893C 1110.36,901.913 1116.7,912.746 1119.5,925.5C 1122.98,944.898 1119.48,962.898 1109,979.5C 1095.67,996.344 1080.17,998.844 1062.5,987C 1049.11,973.338 1042.78,956.838 1043.5,937.5C 1044.18,927.415 1046.52,917.748 1050.5,908.5C 1055.31,900.191 1061.98,893.691 1070.5,889C 1076.07,887.649 1081.74,887.149 1087.5,887.5 Z"/></g>
<g><path style="opacity:1" fill="#fce9dd" d="M 1536.5,902.5 C 1544.21,907.877 1550.54,914.544 1555.5,922.5C 1560.15,933.006 1561.65,944.006 1560,955.5C 1551.09,986.384 1530.59,999.884 1498.5,996C 1474.11,988.449 1461.11,971.949 1459.5,946.5C 1459.27,938.091 1460.94,930.091 1464.5,922.5C 1482.64,894.9 1506.64,888.233 1536.5,902.5 Z"/></g>
<g><path style="opacity:1" fill="#d5c4bc" d="M 1439.5,893.5 C 1444.62,905.953 1452.95,915.62 1464.5,922.5C 1460.94,930.091 1459.27,938.091 1459.5,946.5C 1450.2,942.579 1442.36,936.579 1436,928.5C 1434.62,916.433 1435.79,904.766 1439.5,893.5 Z"/></g>
<g><path style="opacity:1" fill="#3d92ce" d="M 1207.5,863.5 C 1210.99,886.006 1222.99,902.339 1243.5,912.5C 1250.86,927.097 1262.7,934.097 1279,933.5C 1283.85,925.139 1288.68,916.806 1293.5,908.5C 1295.22,908.629 1296.88,908.962 1298.5,909.5C 1304.27,913.559 1310.27,917.392 1316.5,921C 1318.73,922.829 1321.07,923.329 1323.5,922.5C 1310.75,934.704 1295.42,941.87 1277.5,944C 1257.39,946.139 1238.72,941.972 1221.5,931.5C 1220.89,931.624 1220.56,931.957 1220.5,932.5C 1206.83,912.475 1197.5,890.475 1192.5,866.5C 1193.79,866.737 1194.79,866.404 1195.5,865.5C 1199.62,865.47 1203.62,864.803 1207.5,863.5 Z"/></g>
<g><path style="opacity:0.983" fill="#c6b7b0" d="M 1007.5,873.5 C 1012.04,876.266 1016.38,879.266 1020.5,882.5C 1015.41,891.05 1015.24,899.717 1020,908.5C 1026.63,916.473 1033.13,916.473 1039.5,908.5C 1043.17,908.5 1046.83,908.5 1050.5,908.5C 1046.52,917.748 1044.18,927.415 1043.5,937.5C 1031.77,937.635 1020.44,935.635 1009.5,931.5C 1005.07,912.268 1004.41,892.935 1007.5,873.5 Z"/></g>
<g><path style="opacity:1" fill="#328bca" d="M 1327.5,919.5 C 1330.41,925.082 1333.74,930.415 1337.5,935.5C 1325.35,947.25 1311.01,955.417 1294.5,960C 1288.92,961.515 1283.26,962.515 1277.5,963C 1267.98,963.257 1258.65,963.423 1249.5,963.5C 1237.79,955.091 1228.13,944.757 1220.5,932.5C 1220.56,931.957 1220.89,931.624 1221.5,931.5C 1238.72,941.972 1257.39,946.139 1277.5,944C 1295.42,941.87 1310.75,934.704 1323.5,922.5C 1324.8,921.512 1326.13,920.512 1327.5,919.5 Z"/></g>
<g><path style="opacity:0.986" fill="#2783c5" d="M 1337.5,935.5 C 1357.01,961.019 1377.67,985.686 1399.5,1009.5C 1394.79,1013.92 1389.12,1015.58 1382.5,1014.5C 1350.92,1013.42 1321.25,1005.42 1293.5,990.5C 1283.4,985.282 1273.4,979.782 1263.5,974C 1258.59,970.723 1253.92,967.223 1249.5,963.5C 1258.65,963.423 1267.98,963.257 1277.5,963C 1283.26,962.515 1288.92,961.515 1294.5,960C 1311.01,955.417 1325.35,947.25 1337.5,935.5 Z"/></g>
</svg>
